<?xml version="1.0" encoding="UTF-8"?>
<svg version="1.1" viewBox="0 0 210 297" xmlns="http://www.w3.org/2000/svg">
 <path d="m199.5 242.89c-3.6934-6.402-6.8944-13.543-13.05-28.563l-55.156-137.89c-5.9095-14.774-7.1407-18.467-8.3718-23.392h-30.04c-1.2312 5.9095-3.201 11.573-7.8794 23.392l-54.909 137.89c-5.9095 14.774-8.618 20.683-13.05 28.563h29.794c1.7236-8.8643 3.6934-15.266 7.6331-25.362l11.819-30.533h83.964l12.065 30.533c2.7085 7.3869 5.6633 16.99 7.3869 25.362zm-56.14-76.085h-70.176l29.794-78.794c0.49246-1.2311 1.2312-3.6934 2.4623-7.1407 0.49246-1.7236 1.4774-4.6784 2.7085-8.1256 4.4321 13.05 4.4321 13.05 5.1708 15.266z" stroke="#000" aria-label="A"/>
 <circle cx="108.23" cy="140.95" r="12.382" stroke="#000" stroke-width="1.4056"/>
</svg>
